<svg width="77" height="39" viewBox="0 0 77 39" fill="none" xmlns="http://www.w3.org/2000/svg">
<path d="M1.16406 24.9648C1.16406 24.1914 1.39844 23.418 1.86719 22.6445C2.33594 21.8711 2.95703 21.1211 3.73047 20.3945C4.50391 19.6445 5.38281 18.9531 6.36719 18.3203C7.35156 17.6641 8.34766 17.0898 9.35547 16.5977C10.3867 16.1055 11.3828 15.7188 12.3438 15.4375C13.3281 15.1562 14.1836 15.0156 14.9102 15.0156C14.9102 15.6953 14.7344 16.3164 14.3828 16.8789C14.0547 17.4414 13.6094 17.9688 13.0469 18.4609C12.4844 18.9531 11.8516 19.4336 11.1484 19.9023C10.4688 20.3477 9.78906 20.793 9.10938 21.2383C8.45312 21.6836 7.82031 22.1523 7.21094 22.6445C6.60156 23.1367 6.10938 23.6641 5.73438 24.2266C5.71094 24.2969 5.6875 24.3438 5.66406 24.3672C5.66406 24.4375 5.66406 24.5078 5.66406 24.5781C5.66406 24.6484 5.66406 24.7188 5.66406 24.7891C5.6875 24.8594 5.71094 24.918 5.73438 24.9648C5.78125 24.9883 5.88672 25.1055 6.05078 25.3164C6.23828 25.5273 6.37891 25.6562 6.47266 25.7031C6.58984 25.7969 6.85938 25.9727 7.28125 26.2305C7.72656 26.4883 8.23047 26.8047 8.79297 27.1797C9.37891 27.5547 9.98828 27.9414 10.6211 28.3398C11.2773 28.7383 11.8867 29.125 12.4492 29.5C13.0117 29.875 13.5039 30.2031 13.9258 30.4844C14.3477 30.7422 14.6406 30.918 14.8047 31.0117C14.8516 31.0352 14.9688 31.1523 15.1562 31.3633C15.3672 31.5508 15.4844 31.668 15.5078 31.7148C15.5078 31.7852 15.5195 31.8555 15.543 31.9258C15.543 31.9492 15.543 31.9844 15.543 32.0312C15.5664 32.0781 15.5781 32.1133 15.5781 32.1367C15.5781 32.1602 15.5664 32.1953 15.543 32.2422C15.543 32.2656 15.543 32.2891 15.543 32.3125C15.5195 32.3828 15.5078 32.4414 15.5078 32.4883C15.4609 32.582 15.3555 32.7227 15.1914 32.9102C15.0273 33.0977 14.8633 33.2734 14.6992 33.4375C14.5586 33.5781 14.418 33.707 14.2773 33.8242C14.1367 33.9414 14.043 34 13.9961 34C13.6211 34 13.0352 33.8594 12.2383 33.5781C11.4648 33.2734 10.5977 32.875 9.63672 32.3828C8.69922 31.8906 7.72656 31.3281 6.71875 30.6953C5.73438 30.0625 4.82031 29.4062 3.97656 28.7266C3.15625 28.0469 2.47656 27.3789 1.9375 26.7227C1.42188 26.0664 1.16406 25.4805 1.16406 24.9648ZM20.7109 30.3086C20.7109 29.3242 20.793 28.3633 20.957 27.4258C21.1211 26.4883 21.2969 25.5508 21.4844 24.6133C21.6719 23.6758 21.8477 22.75 22.0117 21.8359C22.1992 20.8984 22.293 19.9375 22.293 18.9531V18.1797C22.1758 18.0859 21.9414 17.8867 21.5898 17.582C21.2383 17.2539 20.8398 16.8672 20.3945 16.4219C19.9727 15.9766 19.5039 15.4844 18.9883 14.9453C18.4961 14.3828 18.0391 13.8086 17.6172 13.2227C17.2188 12.6367 16.8789 12.0625 16.5977 11.5C16.3398 10.9375 16.2109 10.3984 16.2109 9.88281C16.2109 9.78906 16.2109 9.64844 16.2109 9.46094C16.2344 9.27344 16.2578 9.10938 16.2812 8.96875C16.3281 8.80469 16.4102 8.66406 16.5273 8.54688C16.6445 8.42969 16.7969 8.37109 16.9844 8.37109C17.5469 8.37109 18.0273 8.52344 18.4258 8.82812C18.8477 9.13281 19.2227 9.51953 19.5508 9.98828C19.8789 10.4336 20.1836 10.9258 20.4648 11.4648C20.7461 11.9805 21.0391 12.4727 21.3438 12.9414C21.6719 13.3867 22.0234 13.7617 22.3984 14.0664C22.7969 14.3711 23.2656 14.5234 23.8047 14.5234C24.3438 14.5234 24.8359 14.3477 25.2812 13.9961C25.7266 13.6445 26.1484 13.2109 26.5469 12.6953C26.9688 12.1562 27.3906 11.582 27.8125 10.9727C28.2578 10.3398 28.7383 9.76562 29.2539 9.25C29.7695 8.71094 30.3555 8.26562 31.0117 7.91406C31.668 7.5625 32.4297 7.38672 33.2969 7.38672C33.2969 8.01953 33.1445 8.59375 32.8398 9.10938C32.5586 9.625 32.207 10.1172 31.7852 10.5859C31.3633 11.0312 30.8945 11.4766 30.3789 11.9219C29.8867 12.3672 29.418 12.8359 28.9727 13.3281C28.5508 13.7969 28.1992 14.3125 27.918 14.875C27.6367 15.4375 27.4961 16.0586 27.4961 16.7383C27.4961 17.0664 27.7305 17.5234 28.1992 18.1094C28.668 18.6953 29.2422 19.3398 29.9219 20.043C30.625 20.7227 31.3867 21.4258 32.207 22.1523C33.0273 22.8555 33.8008 23.5117 34.5273 24.1211C35.2539 24.7305 35.875 25.2461 36.3906 25.668C36.9062 26.0898 37.2227 26.3477 37.3398 26.4414C37.3398 26.4883 37.3516 26.6172 37.375 26.8281C37.3984 27.0156 37.4102 27.1445 37.4102 27.2148C37.4102 27.6133 37.3164 27.9766 37.1289 28.3047C36.9648 28.6328 36.6602 28.7969 36.2148 28.7969C36.168 28.7969 36.0977 28.7852 36.0039 28.7617C35.9336 28.7383 35.8867 28.7266 35.8633 28.7266C35.6758 28.5625 35.4062 28.3281 35.0547 28.0234C34.7266 27.6953 34.3398 27.332 33.8945 26.9336C33.4492 26.5352 32.9805 26.125 32.4883 25.7031C31.9961 25.2578 31.5273 24.8477 31.082 24.4727C30.6367 24.0742 30.2266 23.7227 29.8516 23.418C29.4766 23.0898 29.207 22.8555 29.043 22.7148C28.832 22.5273 28.5625 22.3047 28.2344 22.0469C27.9062 21.7656 27.5781 21.5078 27.25 21.2734C26.9453 21.0156 26.6758 20.8047 26.4414 20.6406C26.207 20.4766 26.0781 20.4062 26.0547 20.4297L25.2812 21.2031C25.0938 21.4141 24.9531 21.8711 24.8594 22.5742C24.7891 23.2773 24.7188 24.1094 24.6484 25.0703C24.5781 26.0078 24.5078 27.0039 24.4375 28.0586C24.3672 29.1133 24.25 30.0859 24.0859 30.9766C23.9453 31.8672 23.7227 32.6055 23.418 33.1914C23.1133 33.7773 22.7148 34.0703 22.2227 34.0703C21.7773 34.0703 21.4375 33.9297 21.2031 33.6484C20.9922 33.3672 20.8516 33.0273 20.7812 32.6289C20.7109 32.207 20.6758 31.7852 20.6758 31.3633C20.6992 30.9414 20.7109 30.5898 20.7109 30.3086ZM63.707 32.4883C63.707 32.1133 63.8711 31.6211 64.1992 31.0117C64.5273 30.4023 64.9492 29.7578 65.4648 29.0781C65.9805 28.375 66.5312 27.6602 67.1172 26.9336C67.7266 26.1836 68.3125 25.4805 68.875 24.8242C69.4375 24.1445 69.9297 23.5586 70.3516 23.0664C70.7734 22.5508 71.0781 22.1758 71.2656 21.9414C71.2656 21.8945 71.2773 21.8359 71.3008 21.7656C71.3242 21.6719 71.3359 21.6016 71.3359 21.5547C71.3359 21.5547 71.3242 21.4961 71.3008 21.3789C71.2773 21.332 71.2656 21.2734 71.2656 21.2031C71.2188 21.1094 71.1016 20.9688 70.9141 20.7812C70.7266 20.5938 70.5859 20.4766 70.4922 20.4297C70.3516 20.3359 70.0703 20.1602 69.6484 19.9023C69.2266 19.6445 68.7344 19.3281 68.1719 18.9531C67.6094 18.5781 67 18.1914 66.3438 17.793C65.7109 17.3945 65.1133 17.0195 64.5508 16.668C63.9883 16.293 63.4961 15.9766 63.0742 15.7188C62.6523 15.4375 62.3594 15.2617 62.1953 15.1914C61.8438 14.957 61.5977 14.7109 61.457 14.4531C61.3398 14.1953 61.2812 13.8555 61.2812 13.4336C61.9141 13.4336 62.7344 13.5391 63.7422 13.75C64.7734 13.9375 65.8516 14.207 66.9766 14.5586C68.1016 14.8867 69.2383 15.2852 70.3867 15.7539C71.5352 16.2227 72.5664 16.7383 73.4805 17.3008C74.3945 17.8398 75.1445 18.4141 75.7305 19.0234C76.3164 19.6328 76.6094 20.2305 76.6094 20.8164C76.6094 20.8633 76.5977 20.9336 76.5742 21.0273C76.5508 21.0977 76.5391 21.1562 76.5391 21.2031C76.3281 21.4609 76.0117 21.8477 75.5898 22.3633C75.168 22.8555 74.6875 23.4297 74.1484 24.0859C73.6094 24.7422 73.0352 25.4336 72.4258 26.1602C71.8398 26.8633 71.2656 27.5312 70.7031 28.1641C70.1641 28.7969 69.6719 29.3711 69.2266 29.8867C68.7812 30.4023 68.4531 30.7773 68.2422 31.0117C67.8906 31.4102 67.6094 31.75 67.3984 32.0312C67.1875 32.3125 66.9883 32.5469 66.8008 32.7344C66.6367 32.9219 66.4375 33.0625 66.2031 33.1562C65.9922 33.25 65.6875 33.2969 65.2891 33.2969C65.1953 33.2969 65.0547 33.2969 64.8672 33.2969C64.7031 33.2734 64.5273 33.2383 64.3398 33.1914C64.1758 33.1445 64.0234 33.0742 63.8828 32.9805C63.7656 32.8633 63.707 32.6992 63.707 32.4883Z" fill="#ECF0F3"/>
<path d="M44.8281 31.7148C44.8281 31.082 45.0156 30.6602 45.3906 30.4492C45.7656 30.2148 46.2344 30.0742 46.7969 30.0273C47.3828 29.957 48.0039 29.9219 48.6602 29.9219C49.3164 29.8984 49.9258 29.7812 50.4883 29.5703C51.0742 29.3594 51.5547 29.0078 51.9297 28.5156C52.3047 28.0234 52.4922 27.2617 52.4922 26.2305C52.4922 23.3008 52.3281 20.8398 52 18.8477C51.6953 16.8555 51.0625 15.2734 50.1016 14.1016C49.1641 12.9297 47.8516 12.1328 46.1641 11.7109C44.5 11.2891 42.3203 11.1836 39.625 11.3945C39.5547 11.3711 39.4375 11.2891 39.2734 11.1484C39.1328 11.0078 38.9805 10.8555 38.8164 10.6914C38.6523 10.5273 38.5 10.375 38.3594 10.2344C38.2422 10.0703 38.1602 9.95312 38.1133 9.88281C38.0898 9.83594 38.0781 9.78906 38.0781 9.74219C38.0547 9.67188 38.043 9.58984 38.043 9.49609C38.043 9.44922 38.0547 9.39062 38.0781 9.32031C38.0781 9.27344 38.0898 9.22656 38.1133 9.17969C38.1836 9.10938 38.2773 9.02734 38.3945 8.93359C38.5352 8.83984 38.6875 8.75781 38.8516 8.6875C39.0391 8.59375 39.1914 8.52344 39.3086 8.47656C39.4492 8.40625 39.5547 8.37109 39.625 8.37109C40.0703 8.34766 40.7383 8.3125 41.6289 8.26562C42.543 8.21875 43.5742 8.17188 44.7227 8.125C45.8711 8.05469 47.1016 7.98438 48.4141 7.91406C49.75 7.84375 51.0742 7.78516 52.3867 7.73828C53.7227 7.66797 54.9883 7.62109 56.1836 7.59766C57.4023 7.57422 58.4922 7.5625 59.4531 7.5625C59.4531 8.28906 59.3125 8.85156 59.0312 9.25C58.75 9.625 58.3984 9.91797 57.9766 10.1289C57.5781 10.3164 57.1328 10.457 56.6406 10.5508C56.1719 10.6445 55.7266 10.7734 55.3047 10.9375C54.9062 11.0781 54.5664 11.3125 54.2852 11.6406C54.0039 11.9453 53.8633 12.4023 53.8633 13.0117C53.8633 14.2305 53.9805 15.4141 54.2148 16.5625C54.4727 17.7109 54.7539 18.8594 55.0586 20.0078C55.3633 21.1328 55.6328 22.2695 55.8672 23.418C56.125 24.5664 56.2539 25.7266 56.2539 26.8984C56.2539 27.9531 56.0195 28.9141 55.5508 29.7812C55.082 30.6484 54.4609 31.3984 53.6875 32.0312C52.9375 32.6641 52.082 33.168 51.1211 33.543C50.1836 33.8945 49.2461 34.0703 48.3086 34.0703C47.9336 34.0703 47.5352 34.0352 47.1133 33.9648C46.7148 33.8945 46.3398 33.7656 45.9883 33.5781C45.6602 33.3672 45.3789 33.1211 45.1445 32.8398C44.9336 32.5352 44.8281 32.1602 44.8281 31.7148Z" fill="#1ABE4D"/>
</svg>
